<?xml version="1.0" standalone="no"?>
<!DOCTYPE svg PUBLIC "-//W3C//DTD SVG 20010904//EN"
 "http://www.w3.org/TR/2001/REC-SVG-20010904/DTD/svg10.dtd">
<svg version="1.0" xmlns="http://www.w3.org/2000/svg"
 width="1024.000000pt" height="1024.000000pt" viewBox="0 0 1024.000000 1024.000000"
 preserveAspectRatio="xMidYMid meet">
<metadata>
Created by potrace 1.14, written by Peter Selinger 2001-2017
</metadata>
<g transform="translate(0.000000,1024.000000) scale(0.100000,-0.100000)"
fill="#000000" stroke="none">
<path d="M4755 10215 c-102 -24 -219 -60 -290 -90 -87 -37 -190 -89 -203 -102
-7 -7 -17 -13 -22 -13 -17 0 -173 -112 -258 -184 -85 -73 -233 -243 -327 -377
-45 -65 -154 -240 -171 -274 -14 -30 -84 -163 -161 -305 -22 -41 -96 -183
-163 -315 -68 -132 -163 -316 -211 -410 -48 -93 -179 -352 -291 -575 -112
-223 -206 -406 -210 -408 -5 -2 -8 -12 -8 -23 0 -10 -4 -19 -10 -19 -5 0 -10
-6 -10 -13 0 -8 -20 -50 -44 -95 -24 -45 -42 -82 -39 -82 2 0 -5 -13 -16 -29
-12 -16 -21 -32 -21 -36 0 -4 -48 -103 -106 -221 -58 -117 -106 -217 -106
-221 0 -4 -4 -13 -9 -19 -5 -7 -29 -52 -53 -100 -107 -217 -230 -469 -231
-474 -1 -3 -32 -68 -69 -145 -37 -77 -94 -194 -126 -260 -32 -66 -84 -174
-116 -240 -32 -66 -58 -122 -59 -125 -1 -3 -31 -68 -68 -144 -37 -76 -67 -140
-67 -142 0 -1 -34 -74 -75 -161 -88 -183 -90 -187 -185 -393 -39 -85 -85 -182
-101 -216 -16 -33 -29 -65 -29 -70 0 -6 -6 -16 -12 -22 -7 -7 -13 -16 -14 -20
-1 -11 -17 -47 -69 -157 -58 -122 -69 -148 -67 -157 1 -5 -2 -8 -8 -8 -5 0
-10 -4 -10 -9 0 -5 -10 -31 -22 -58 -12 -26 -22 -50 -23 -53 -2 -5 -25 -58
-63 -140 -51 -112 -71 -160 -66 -160 3 0 -1 -10 -8 -22 -6 -13 -13 -27 -15
-33 -1 -5 -21 -59 -44 -120 -22 -60 -43 -117 -44 -125 -2 -8 -13 -45 -24 -82
-10 -36 -17 -69 -13 -72 3 -3 0 -6 -7 -6 -7 0 -9 -4 -6 -10 3 -5 1 -27 -4 -47
-23 -89 -26 -135 -26 -448 0 -311 3 -369 25 -455 5 -19 11 -46 14 -60 16 -78
69 -242 103 -320 66 -152 213 -418 243 -440 3 -3 17 -21 31 -41 111 -165 362
-400 569 -530 115 -73 120 -76 160 -96 19 -9 38 -21 41 -25 3 -5 16 -10 27
-11 12 -1 22 -4 22 -8 0 -4 17 -13 37 -20 21 -6 43 -15 48 -19 24 -17 224 -85
242 -81 7 1 13 -2 13 -8 0 -5 8 -8 18 -6 9 1 22 -1 27 -5 11 -7 105 -29 210
-48 53 -9 679 -9 730 1 22 4 51 9 65 12 14 3 36 7 50 10 39 7 123 27 140 33 8
3 24 7 35 9 38 8 50 11 50 13 0 1 7 3 15 5 30 7 226 78 285 103 86 37 322 158
355 182 15 11 33 20 39 20 6 0 11 5 11 10 0 6 5 10 12 10 6 0 44 23 84 50 40
28 75 50 78 50 3 0 14 7 23 15 10 8 56 43 103 77 127 93 270 210 270 220 0 4
4 8 10 8 5 0 18 8 29 17 10 10 53 50 96 88 77 69 386 376 415 412 41 50 44 49
112 -23 94 -101 264 -269 363 -359 119 -109 113 -104 180 -160 33 -27 69 -58
80 -68 11 -10 32 -26 48 -35 15 -9 27 -19 27 -23 0 -3 22 -21 50 -40 27 -19
50 -37 50 -41 0 -5 7 -8 15 -8 8 0 15 -4 15 -10 0 -5 7 -10 15 -10 8 0 15 -4
15 -8 0 -5 16 -17 35 -28 19 -10 35 -21 35 -25 0 -3 10 -11 23 -18 12 -6 34
-19 49 -29 60 -39 216 -132 263 -156 28 -15 57 -31 65 -36 13 -9 69 -34 168
-76 17 -8 47 -21 66 -29 19 -8 83 -31 142 -51 60 -19 116 -38 124 -41 19 -8
28 -10 67 -16 17 -3 36 -8 41 -11 5 -3 24 -8 43 -11 19 -3 84 -15 144 -26 99
-18 141 -19 425 -16 173 3 335 9 360 15 50 11 87 19 128 28 36 7 57 12 57 14
0 1 8 3 17 5 69 13 246 80 368 138 106 50 282 154 288 169 2 4 8 8 14 8 6 0
40 24 77 52 36 29 72 57 79 63 27 20 258 251 286 285 15 19 39 52 53 73 14 20
30 37 36 37 6 0 8 3 4 6 -3 4 0 13 8 20 54 55 255 436 270 513 2 9 4 17 5 19
2 1 3 5 5 10 1 4 4 14 8 22 9 25 37 115 43 141 3 13 9 40 14 59 16 68 20 85
27 125 10 51 10 697 1 750 -9 45 -12 61 -26 123 -5 23 -8 42 -5 42 3 0 0 7 -7
15 -7 8 -10 15 -7 15 4 0 0 19 -9 41 -8 23 -16 51 -19 63 -4 24 -42 131 -56
161 -5 11 -20 51 -35 90 -14 38 -33 87 -43 110 -10 22 -44 99 -76 170 -31 72
-65 148 -76 171 -10 22 -19 46 -19 52 0 7 -4 12 -10 12 -5 0 -10 7 -10 15 0 8
-9 29 -20 47 -11 18 -20 40 -20 49 0 9 -7 22 -15 29 -9 7 -14 15 -11 17 4 4
-55 133 -90 196 -8 15 -12 27 -7 27 4 0 3 4 -2 8 -6 4 -24 36 -39 72 -16 36
-41 91 -56 122 -15 31 -25 59 -22 62 3 4 0 6 -6 6 -6 0 -16 17 -23 38 -6 20
-16 43 -22 51 -6 7 -12 18 -13 25 -1 6 -31 72 -67 146 -36 74 -81 170 -101
213 -20 42 -51 110 -70 150 -18 39 -64 135 -101 212 -37 77 -91 190 -120 250
-119 250 -177 369 -261 540 -48 99 -88 182 -89 185 -3 16 -792 1600 -834 1673
-11 20 -17 37 -13 37 4 0 3 4 -3 8 -5 4 -49 84 -97 178 -155 307 -400 783
-486 944 -25 47 -61 117 -81 155 -20 39 -39 72 -44 73 -4 2 -5 7 -2 12 3 4 -2
13 -10 20 -8 7 -15 16 -15 20 0 4 -18 37 -40 71 -22 35 -44 74 -50 87 -5 12
-14 22 -20 22 -5 0 -10 5 -10 11 0 9 -113 174 -130 189 -3 3 -22 26 -42 51
-45 57 -173 185 -217 219 -18 14 -38 30 -45 37 -41 37 -217 147 -308 191 -59
29 -109 52 -112 52 -3 0 -17 5 -33 12 -15 6 -30 12 -33 12 -3 1 -11 5 -18 10
-7 4 -23 9 -35 11 -12 2 -40 9 -62 15 -22 6 -47 12 -55 15 -112 29 -169 34
-420 34 -241 -1 -274 -3 -365 -24z m550 -659 c124 -28 276 -80 283 -98 2 -4 7
-6 11 -4 11 7 186 -115 243 -170 60 -59 75 -75 140 -159 26 -33 48 -65 48 -72
0 -6 4 -13 9 -15 11 -4 111 -164 111 -178 0 -5 4 -10 9 -10 5 0 14 -15 22 -32
7 -18 15 -35 18 -38 3 -3 23 -39 44 -80 20 -41 67 -131 103 -200 36 -69 91
-174 122 -235 30 -60 59 -111 64 -113 4 -2 8 -10 8 -17 0 -14 94 -200 112
-222 6 -7 7 -13 3 -13 -4 0 -3 -6 3 -13 11 -13 122 -228 310 -602 63 -126 120
-233 125 -236 5 -3 7 -8 6 -10 -2 -2 96 -204 218 -449 121 -245 269 -544 328
-665 59 -121 150 -308 203 -415 131 -270 219 -454 227 -479 3 -12 11 -21 16
-21 5 0 9 -6 9 -14 0 -8 24 -63 53 -122 29 -60 59 -125 67 -144 7 -19 19 -42
27 -51 7 -8 13 -19 13 -23 0 -8 23 -57 128 -276 31 -63 55 -118 54 -122 -1 -5
3 -8 10 -8 6 0 8 -3 5 -7 -4 -3 0 -17 8 -30 9 -13 12 -23 8 -23 -5 0 -3 -4 2
-8 12 -8 85 -165 85 -182 0 -5 5 -10 11 -10 5 0 7 -4 4 -10 -3 -5 -1 -10 4
-10 6 0 10 -3 9 -8 -1 -4 11 -33 25 -65 54 -115 77 -167 76 -173 0 -4 3 -10 8
-13 5 -3 19 -31 32 -61 13 -30 39 -86 57 -124 19 -37 34 -74 34 -82 0 -8 5
-14 11 -14 5 0 7 -4 4 -10 -3 -5 -1 -10 4 -10 6 0 11 -6 11 -13 0 -8 14 -41
30 -75 17 -34 30 -64 30 -66 0 -4 35 -82 90 -201 101 -222 184 -462 205 -600
2 -11 7 -38 11 -60 17 -88 9 -406 -12 -492 -4 -14 -8 -33 -9 -42 -1 -16 -13
-64 -21 -91 -3 -8 -6 -17 -6 -20 -9 -53 -109 -281 -155 -349 -13 -20 -29 -45
-36 -55 -47 -72 -115 -154 -194 -233 -50 -51 -94 -93 -98 -93 -3 0 -16 -10
-28 -21 -35 -35 -175 -123 -262 -167 -102 -51 -204 -87 -330 -118 -135 -33
-194 -39 -370 -39 -154 1 -224 7 -330 32 -16 3 -37 7 -45 9 -95 14 -436 136
-460 164 -3 4 -21 12 -40 20 -19 8 -37 16 -40 19 -8 9 -83 51 -112 64 -16 6
-28 15 -28 19 0 4 -7 8 -15 8 -8 0 -15 5 -15 10 0 6 -6 10 -12 10 -7 0 -37 18
-66 40 -29 22 -57 40 -62 40 -6 0 -10 4 -10 8 0 5 -12 15 -27 23 -16 8 -30 17
-33 20 -3 3 -45 36 -94 74 -50 38 -97 76 -106 84 -9 9 -48 43 -86 76 -93 81
-190 173 -293 278 -127 129 -241 251 -241 257 0 3 10 17 23 32 65 79 84 103
100 129 11 16 23 29 28 29 5 0 9 5 9 11 0 6 12 26 28 44 46 54 62 75 62 80 0
4 107 150 150 205 11 14 20 31 20 38 0 6 4 12 9 12 7 0 52 66 96 139 6 9 20
31 33 48 12 17 22 36 22 41 0 6 4 12 8 14 4 1 26 32 47 68 21 36 43 67 47 68
4 2 8 8 8 13 0 6 24 51 54 102 29 51 72 127 95 170 22 43 47 88 55 99 9 12 13
25 10 30 -3 4 0 8 5 8 6 0 10 3 9 8 -1 4 18 48 41 97 63 131 131 295 123 295
-4 0 -2 4 3 8 9 6 109 291 121 344 2 10 6 28 10 40 3 13 7 34 10 48 3 14 11
50 19 80 13 54 25 115 30 155 2 11 6 38 9 60 24 159 25 457 1 615 -5 35 -9 55
-21 115 -4 17 -7 38 -8 48 0 9 -4 17 -9 17 -4 0 -6 4 -3 9 3 4 -3 31 -13 60
-11 28 -18 51 -16 51 4 0 -9 34 -34 95 -17 39 -101 211 -119 240 -44 75 -84
129 -162 219 -39 45 -163 164 -190 183 -14 9 -29 22 -35 28 -5 7 -26 23 -45
35 -19 13 -37 27 -40 30 -10 13 -157 100 -220 130 -36 18 -73 36 -83 41 -24
13 -148 60 -170 64 -9 2 -22 7 -27 10 -5 3 -19 8 -30 11 -11 2 -29 6 -40 8
-11 3 -25 8 -31 11 -6 4 -23 9 -37 11 -15 1 -38 5 -52 8 -30 5 -74 12 -155 25
-33 5 -136 7 -230 5 -155 -3 -189 -5 -258 -18 -12 -2 -40 -7 -62 -11 -22 -4
-54 -11 -71 -16 -17 -5 -40 -11 -52 -14 -47 -9 -137 -40 -144 -50 -4 -5 -8 -7
-8 -2 0 4 -17 0 -37 -9 -21 -9 -44 -17 -50 -17 -7 0 -13 -3 -13 -6 0 -3 -15
-12 -32 -19 -39 -16 -89 -42 -138 -71 -19 -11 -44 -25 -55 -30 -11 -5 -48 -29
-82 -55 -35 -25 -63 -44 -63 -41 0 2 -10 -6 -23 -18 -13 -12 -59 -53 -103 -92
-43 -38 -107 -101 -140 -140 -70 -79 -164 -212 -164 -231 0 -7 -4 -14 -8 -16
-9 -3 -102 -192 -102 -207 0 -5 -7 -22 -15 -37 -8 -16 -15 -36 -15 -45 0 -9
-3 -19 -7 -23 -5 -4 -9 -12 -9 -17 -1 -5 -2 -10 -4 -11 -1 -2 -3 -12 -5 -23
-4 -26 -13 -62 -20 -85 -9 -27 -18 -77 -30 -170 -22 -154 -22 -428 -1 -582 5
-34 17 -105 22 -133 2 -11 6 -32 9 -47 10 -55 47 -204 61 -244 7 -22 15 -49
17 -60 2 -10 7 -26 10 -34 3 -8 15 -44 27 -80 11 -36 25 -74 30 -85 20 -44 70
-181 70 -192 0 -7 4 -13 8 -13 4 0 14 -16 21 -35 7 -19 31 -74 54 -122 23 -49
41 -91 42 -95 0 -4 6 -13 13 -19 6 -7 12 -16 12 -20 0 -12 125 -240 198 -361
37 -61 74 -123 82 -137 31 -53 75 -116 83 -119 4 -2 7 -8 7 -13 0 -5 26 -46
57 -92 31 -45 75 -109 97 -141 23 -33 51 -71 64 -84 12 -14 22 -31 22 -38 0
-8 4 -14 8 -14 5 0 26 -25 48 -57 21 -31 43 -61 49 -67 33 -35 85 -105 85
-115 0 -6 4 -11 9 -11 9 0 81 -88 81 -99 0 -4 -39 -49 -87 -101 -325 -348
-657 -635 -931 -802 -57 -35 -119 -73 -138 -85 -19 -13 -41 -23 -49 -23 -7 0
-15 -4 -17 -8 -4 -11 -261 -129 -286 -132 -21 -2 -58 -14 -67 -20 -9 -6 -116
-35 -170 -46 -11 -2 -31 -6 -45 -9 -111 -24 -180 -30 -330 -30 -165 0 -229 7
-350 35 -306 73 -547 210 -761 432 -78 80 -189 226 -189 247 0 6 -4 11 -9 11
-5 0 -13 10 -17 23 -3 12 -12 29 -19 37 -27 32 -117 257 -131 327 -2 12 -9 34
-14 48 -5 14 -8 25 -5 25 2 0 0 14 -5 31 -17 58 -24 143 -24 284 -1 160 9 250
39 370 9 33 18 71 21 84 3 13 10 34 16 45 6 12 11 23 11 26 -1 8 7 32 38 110
17 41 31 80 33 85 6 19 40 97 164 375 9 19 15 38 14 43 -1 4 2 7 8 7 5 0 10 5
10 11 0 5 11 34 24 62 50 109 85 185 130 280 25 55 46 103 46 108 0 5 5 9 12
9 6 0 9 3 5 6 -3 4 5 27 18 53 14 25 25 52 25 58 0 7 5 13 11 13 5 0 8 4 4 9
-3 5 0 15 7 23 7 7 14 19 16 26 1 7 22 54 46 105 56 119 119 251 166 352 21
44 62 130 91 190 29 61 53 112 54 115 1 7 68 146 125 262 26 53 45 99 42 102
-3 3 -1 6 4 6 5 0 18 23 29 50 11 28 23 50 27 50 4 0 8 6 8 13 0 8 25 64 55
125 30 62 55 116 55 122 0 5 5 10 10 10 6 0 10 5 10 10 0 10 57 130 238 500
47 96 84 177 83 179 -2 2 1 7 6 10 6 4 184 355 199 391 1 3 5 15 9 28 4 12 12
22 18 22 6 0 8 2 6 5 -5 4 127 271 431 872 46 93 88 170 92 171 4 2 8 9 8 15
0 7 8 28 19 47 10 19 64 125 121 235 56 110 106 206 112 213 6 6 7 12 3 12 -4
0 -3 6 3 13 18 23 101 187 94 187 -4 0 -2 4 4 8 6 4 35 54 64 112 30 58 66
126 82 153 15 26 24 47 20 47 -4 0 -2 4 3 8 6 4 20 27 33 52 43 85 81 152 96
169 9 10 16 21 16 25 0 9 89 138 105 151 7 6 13 15 13 20 2 18 125 147 187
197 33 27 66 53 73 60 46 37 236 121 327 144 6 2 21 6 35 9 14 4 43 9 65 12
22 3 42 7 43 8 7 6 266 -2 297 -9z m-60 -3731 c82 -7 127 -15 148 -26 9 -5 17
-8 17 -5 0 8 143 -43 210 -76 36 -17 94 -50 129 -74 65 -44 189 -144 190 -155
1 -3 19 -25 41 -49 43 -46 120 -170 120 -192 0 -8 4 -18 9 -24 25 -26 67 -192
79 -307 9 -84 7 -325 -2 -367 -4 -14 -9 -47 -12 -75 -4 -27 -10 -58 -16 -67
-5 -10 -7 -18 -4 -18 2 0 -5 -33 -15 -72 -11 -40 -22 -86 -25 -103 -3 -16 -10
-35 -15 -41 -5 -7 -9 -16 -8 -20 1 -5 0 -16 -3 -24 -4 -8 -9 -24 -14 -35 -4
-11 -8 -27 -10 -35 -2 -7 -19 -55 -40 -105 -20 -49 -44 -108 -52 -130 -29 -71
-227 -460 -242 -475 -5 -5 -23 -36 -61 -104 -31 -58 -132 -210 -141 -214 -5
-2 -8 -8 -8 -14 0 -7 -90 -146 -133 -203 -4 -5 -54 -73 -111 -150 -57 -77
-115 -153 -128 -169 l-24 -29 -67 87 c-37 47 -67 89 -67 92 0 3 -6 11 -12 19
-22 22 -41 47 -89 115 -61 86 -219 320 -219 324 0 2 -18 31 -40 64 -22 33 -40
64 -40 70 0 6 -3 12 -8 14 -19 8 -214 374 -284 533 -52 117 -116 283 -123 318
-2 9 -7 21 -10 27 -8 12 -40 132 -66 245 -55 241 -58 497 -8 708 16 68 73 202
116 272 45 74 187 217 268 270 33 22 62 42 65 45 10 10 150 81 150 75 0 -3 14
2 31 11 17 8 38 17 47 20 10 2 53 13 97 24 44 11 109 23 145 26 36 4 66 7 67
8 3 2 108 -3 168 -9z"/>
</g>
</svg>
